<mxfile host="65bd71144e">
    <diagram id="3J0TeoTnsDgLqZJynQZB" name="Page-1">
        <mxGraphModel dx="709" dy="768" grid="1" gridSize="17" guides="1" tooltips="1" connect="1" arrows="1" fold="1" page="1" pageScale="1" pageWidth="827" pageHeight="1169" math="0" shadow="0">
            <root>
                <mxCell id="0"/>
                <mxCell id="1" parent="0"/>
                <mxCell id="25" value="" style="strokeWidth=1;shadow=0;dashed=0;align=center;html=1;shape=mxgraph.mockup.containers.browserWindow;rSize=0;strokeColor=#666666;strokeColor2=#008cff;strokeColor3=#c4c4c4;mainText=,;recursiveResize=0;" parent="1" vertex="1">
                    <mxGeometry x="28" y="30" width="770" height="450" as="geometry"/>
                </mxCell>
                <mxCell id="26" value="Page 1" style="strokeWidth=1;shadow=0;dashed=0;align=center;html=1;shape=mxgraph.mockup.containers.anchor;fontSize=17;fontColor=#666666;align=left;" parent="25" vertex="1">
                    <mxGeometry x="60" y="12" width="110" height="26" as="geometry"/>
                </mxCell>
                <mxCell id="27" value="" style="strokeWidth=1;shadow=0;dashed=0;align=center;html=1;shape=mxgraph.mockup.containers.anchor;rSize=0;fontSize=17;fontColor=#666666;align=left;" parent="25" vertex="1">
                    <mxGeometry x="130" y="60" width="250" height="26" as="geometry"/>
                </mxCell>
                <mxCell id="28" value="" style="rounded=0;whiteSpace=wrap;html=1;" parent="25" vertex="1">
                    <mxGeometry x="25" y="130" width="400" height="50" as="geometry"/>
                </mxCell>
                <mxCell id="29" value="Search Term" style="text;html=1;strokeColor=none;fillColor=none;align=left;verticalAlign=middle;whiteSpace=wrap;rounded=0;fontStyle=2" parent="25" vertex="1">
                    <mxGeometry x="30" y="130" width="80" height="20" as="geometry"/>
                </mxCell>
                <mxCell id="30" value="" style="rounded=0;whiteSpace=wrap;html=1;align=left;" parent="25" vertex="1">
                    <mxGeometry x="30" y="150" width="389.5" height="20" as="geometry"/>
                </mxCell>
                <mxCell id="31" value="" style="group" parent="1" vertex="1" connectable="0">
                    <mxGeometry x="40" y="530" width="320" height="230" as="geometry"/>
                </mxCell>
                <mxCell id="21" value="How does data flow through a React app?" style="rounded=0;whiteSpace=wrap;html=1;fontSize=14;fillColor=#2d3643;strokeColor=#6C8EBF;" parent="31" vertex="1">
                    <mxGeometry width="320" height="50" as="geometry"/>
                </mxCell>
                <mxCell id="22" value="Where do we do data fetching?" style="rounded=0;whiteSpace=wrap;html=1;fontSize=14;" parent="31" vertex="1">
                    <mxGeometry y="80" width="320" height="50" as="geometry"/>
                </mxCell>
                <mxCell id="23" value="Where do we define state?" style="rounded=0;whiteSpace=wrap;html=1;fontSize=14;" parent="31" vertex="1">
                    <mxGeometry y="130" width="320" height="50" as="geometry"/>
                </mxCell>
                <mxCell id="24" value="How do we share info between components?" style="rounded=0;whiteSpace=wrap;html=1;fontSize=14;" parent="31" vertex="1">
                    <mxGeometry y="180" width="320" height="50" as="geometry"/>
                </mxCell>
                <mxCell id="20" style="edgeStyle=orthogonalEdgeStyle;rounded=0;orthogonalLoop=1;jettySize=auto;html=1;exitX=0.5;exitY=1;exitDx=0;exitDy=0;strokeColor=#000000;strokeWidth=1;fontSize=14;" parent="31" source="21" target="22" edge="1">
                    <mxGeometry relative="1" as="geometry"/>
                </mxCell>
                <mxCell id="32" value="" style="group" parent="1" vertex="1" connectable="0">
                    <mxGeometry x="880" y="40" width="540" height="360" as="geometry"/>
                </mxCell>
                <mxCell id="2" value="App" style="rounded=1;whiteSpace=wrap;html=1;" parent="32" vertex="1">
                    <mxGeometry x="140" width="120" height="60" as="geometry"/>
                </mxCell>
                <mxCell id="5" value="SearchBar" style="rounded=1;whiteSpace=wrap;html=1;" parent="32" vertex="1">
                    <mxGeometry y="140" width="120" height="60" as="geometry"/>
                </mxCell>
                <mxCell id="11" style="html=1;exitX=0.5;exitY=1;exitDx=0;exitDy=0;edgeStyle=elbowEdgeStyle;elbow=vertical;" parent="32" source="2" target="5" edge="1">
                    <mxGeometry relative="1" as="geometry">
                        <mxPoint x="60" y="130" as="targetPoint"/>
                    </mxGeometry>
                </mxCell>
                <mxCell id="6" value="ImageList" style="rounded=1;whiteSpace=wrap;html=1;" parent="32" vertex="1">
                    <mxGeometry x="280" y="140" width="120" height="60" as="geometry"/>
                </mxCell>
                <mxCell id="12" style="edgeStyle=elbowEdgeStyle;html=1;exitX=0.5;exitY=1;exitDx=0;exitDy=0;entryX=0.558;entryY=0.033;entryDx=0;entryDy=0;entryPerimeter=0;elbow=vertical;" parent="32" source="2" target="6" edge="1">
                    <mxGeometry relative="1" as="geometry"/>
                </mxCell>
                <mxCell id="13" value="ImageShow" style="rounded=1;whiteSpace=wrap;html=1;shadow=0;" parent="32" vertex="1">
                    <mxGeometry x="140" y="300" width="120" height="60" as="geometry"/>
                </mxCell>
                <mxCell id="14" value="" style="edgeStyle=elbowEdgeStyle;elbow=vertical;html=1;" parent="32" source="6" target="13" edge="1">
                    <mxGeometry relative="1" as="geometry"/>
                </mxCell>
                <mxCell id="15" value="ImageShow" style="rounded=1;whiteSpace=wrap;html=1;" parent="32" vertex="1">
                    <mxGeometry x="420" y="300" width="120" height="60" as="geometry"/>
                </mxCell>
                <mxCell id="16" value="" style="edgeStyle=elbowEdgeStyle;elbow=vertical;html=1;" parent="32" source="6" target="15" edge="1">
                    <mxGeometry relative="1" as="geometry"/>
                </mxCell>
                <mxCell id="17" value="" style="edgeStyle=elbowEdgeStyle;elbow=vertical;html=1;" parent="32" source="6" target="15" edge="1">
                    <mxGeometry relative="1" as="geometry"/>
                </mxCell>
                <mxCell id="18" value="ImageShow" style="rounded=1;whiteSpace=wrap;html=1;" parent="32" vertex="1">
                    <mxGeometry x="280" y="300" width="120" height="60" as="geometry"/>
                </mxCell>
                <mxCell id="19" value="" style="edgeStyle=elbowEdgeStyle;elbow=vertical;html=1;entryX=0.25;entryY=1;entryDx=0;entryDy=0;" parent="32" source="6" target="18" edge="1">
                    <mxGeometry relative="1" as="geometry"/>
                </mxCell>
                <mxCell id="57" value="" style="group" parent="1" vertex="1" connectable="0">
                    <mxGeometry x="390" y="530" width="370" height="190" as="geometry"/>
                </mxCell>
                <mxCell id="58" value="images" style="rounded=0;whiteSpace=wrap;html=1;fillColor=#006666;" parent="57" vertex="1">
                    <mxGeometry width="110" height="20" as="geometry"/>
                </mxCell>
                <mxCell id="59" value="" style="rounded=0;whiteSpace=wrap;html=1;fillColor=#006666;strokeColor=#9999FF;" parent="57" vertex="1">
                    <mxGeometry y="20" width="110" height="170" as="geometry"/>
                </mxCell>
                <mxCell id="60" value="{ desc: 'orange lambo' }" style="rounded=0;whiteSpace=wrap;html=1;fontSize=8;" parent="57" vertex="1">
                    <mxGeometry x="5" y="30" width="100" height="20" as="geometry"/>
                </mxCell>
                <mxCell id="61" value="{ desc: 'black shelby' }" style="rounded=0;whiteSpace=wrap;html=1;fontSize=8;" parent="57" vertex="1">
                    <mxGeometry x="5" y="72" width="100" height="20" as="geometry"/>
                </mxCell>
                <mxCell id="62" value="{ desc: 'black porsche' }" style="rounded=0;whiteSpace=wrap;html=1;fontSize=8;" parent="57" vertex="1">
                    <mxGeometry x="5" y="113" width="100" height="20" as="geometry"/>
                </mxCell>
                <mxCell id="63" value="{ desc: 'white car' }" style="rounded=0;whiteSpace=wrap;html=1;fontSize=8;" parent="57" vertex="1">
                    <mxGeometry x="5" y="155" width="100" height="20" as="geometry"/>
                </mxCell>
                <mxCell id="64" value="&amp;lt;ImageShow image={{ desc: 'orange lambo' }} /&amp;gt;" style="rounded=0;whiteSpace=wrap;html=1;fontSize=8;" parent="57" vertex="1">
                    <mxGeometry x="130" y="30" width="100" height="20" as="geometry"/>
                </mxCell>
                <mxCell id="65" style="edgeStyle=orthogonalEdgeStyle;rounded=0;orthogonalLoop=1;jettySize=auto;html=1;exitX=1;exitY=0.5;exitDx=0;exitDy=0;fontSize=8;" parent="57" source="60" target="64" edge="1">
                    <mxGeometry relative="1" as="geometry"/>
                </mxCell>
                <mxCell id="66" value="&amp;lt;ImageShow image={{ desc: 'black shelby' }} /&amp;gt;" style="rounded=0;whiteSpace=wrap;html=1;fontSize=8;" parent="57" vertex="1">
                    <mxGeometry x="130" y="72" width="100" height="20" as="geometry"/>
                </mxCell>
                <mxCell id="67" style="edgeStyle=orthogonalEdgeStyle;rounded=0;orthogonalLoop=1;jettySize=auto;html=1;exitX=1;exitY=0.5;exitDx=0;exitDy=0;fontSize=8;" parent="57" source="61" target="66" edge="1">
                    <mxGeometry relative="1" as="geometry"/>
                </mxCell>
                <mxCell id="68" value="&amp;lt;ImageShow image={{ desc: 'black porsche' }} /&amp;gt;" style="rounded=0;whiteSpace=wrap;html=1;fontSize=8;" parent="57" vertex="1">
                    <mxGeometry x="130" y="113" width="100" height="20" as="geometry"/>
                </mxCell>
                <mxCell id="69" style="edgeStyle=orthogonalEdgeStyle;rounded=0;orthogonalLoop=1;jettySize=auto;html=1;exitX=1;exitY=0.5;exitDx=0;exitDy=0;fontSize=8;" parent="57" source="62" target="68" edge="1">
                    <mxGeometry relative="1" as="geometry"/>
                </mxCell>
                <mxCell id="70" value="&amp;lt;ImageShow image={{ desc: 'white car' }} /&amp;gt;" style="rounded=0;whiteSpace=wrap;html=1;fontSize=8;" parent="57" vertex="1">
                    <mxGeometry x="130" y="155" width="100" height="20" as="geometry"/>
                </mxCell>
                <mxCell id="71" style="edgeStyle=orthogonalEdgeStyle;rounded=0;orthogonalLoop=1;jettySize=auto;html=1;exitX=1;exitY=0.5;exitDx=0;exitDy=0;fontSize=8;" parent="57" source="63" target="70" edge="1">
                    <mxGeometry relative="1" as="geometry"/>
                </mxCell>
                <mxCell id="72" value="&amp;lt;div&amp;gt;orange lambo&amp;lt;/div&amp;gt;" style="rounded=0;whiteSpace=wrap;html=1;fontSize=8;" parent="57" vertex="1">
                    <mxGeometry x="270" y="30" width="100" height="20" as="geometry"/>
                </mxCell>
                <mxCell id="73" style="edgeStyle=orthogonalEdgeStyle;rounded=0;orthogonalLoop=1;jettySize=auto;html=1;exitX=1;exitY=0.5;exitDx=0;exitDy=0;fontSize=8;" parent="57" source="64" target="72" edge="1">
                    <mxGeometry relative="1" as="geometry"/>
                </mxCell>
                <mxCell id="74" value="&amp;lt;div&amp;gt;black shelby&amp;lt;/div&amp;gt;" style="rounded=0;whiteSpace=wrap;html=1;fontSize=8;" parent="57" vertex="1">
                    <mxGeometry x="270" y="72" width="100" height="20" as="geometry"/>
                </mxCell>
                <mxCell id="75" style="edgeStyle=orthogonalEdgeStyle;rounded=0;orthogonalLoop=1;jettySize=auto;html=1;exitX=1;exitY=0.5;exitDx=0;exitDy=0;fontSize=8;" parent="57" source="66" target="74" edge="1">
                    <mxGeometry relative="1" as="geometry"/>
                </mxCell>
                <mxCell id="76" value="&amp;lt;div&amp;gt;black porsche&amp;lt;/div&amp;gt;" style="rounded=0;whiteSpace=wrap;html=1;fontSize=8;" parent="57" vertex="1">
                    <mxGeometry x="270" y="113" width="100" height="20" as="geometry"/>
                </mxCell>
                <mxCell id="77" style="edgeStyle=orthogonalEdgeStyle;rounded=0;orthogonalLoop=1;jettySize=auto;html=1;exitX=1;exitY=0.5;exitDx=0;exitDy=0;fontSize=8;" parent="57" source="68" target="76" edge="1">
                    <mxGeometry relative="1" as="geometry"/>
                </mxCell>
                <mxCell id="78" value="&amp;lt;div&amp;gt;white car&amp;lt;/div&amp;gt;" style="rounded=0;whiteSpace=wrap;html=1;fontSize=8;" parent="57" vertex="1">
                    <mxGeometry x="270" y="155" width="100" height="20" as="geometry"/>
                </mxCell>
                <mxCell id="79" style="edgeStyle=orthogonalEdgeStyle;rounded=0;orthogonalLoop=1;jettySize=auto;html=1;exitX=1;exitY=0.5;exitDx=0;exitDy=0;fontSize=8;" parent="57" source="70" target="78" edge="1">
                    <mxGeometry relative="1" as="geometry"/>
                </mxCell>
                <mxCell id="80" value="" style="group" parent="1" vertex="1" connectable="0">
                    <mxGeometry x="130" y="820" width="440" height="266" as="geometry"/>
                </mxCell>
                <mxCell id="81" value="Create a new piece of state" style="rounded=0;whiteSpace=wrap;html=1;shadow=0;strokeColor=#000000;fontSize=14;align=center;" parent="80" vertex="1">
                    <mxGeometry x="40" y="26" width="400" height="40" as="geometry"/>
                </mxCell>
                <mxCell id="82" value="1" style="rounded=0;whiteSpace=wrap;html=1;shadow=0;strokeColor=#6c8ebf;fontSize=15;align=center;fillColor=#006666;" parent="80" vertex="1">
                    <mxGeometry y="26" width="40" height="40" as="geometry"/>
                </mxCell>
                <mxCell id="83" value="2" style="rounded=0;whiteSpace=wrap;html=1;shadow=0;strokeColor=#6c8ebf;fontSize=15;align=center;fillColor=#006666;" parent="80" vertex="1">
                    <mxGeometry y="76" width="40" height="40" as="geometry"/>
                </mxCell>
                <mxCell id="84" value="Create an event handler to watch for the 'onChange' event" style="rounded=0;whiteSpace=wrap;html=1;shadow=0;strokeColor=#000000;fontSize=14;align=center;" parent="80" vertex="1">
                    <mxGeometry x="40" y="76" width="400" height="40" as="geometry"/>
                </mxCell>
                <mxCell id="85" value="3" style="rounded=0;whiteSpace=wrap;html=1;shadow=0;strokeColor=#6c8ebf;fontSize=15;align=center;fillColor=#006666;" parent="80" vertex="1">
                    <mxGeometry y="126" width="40" height="40" as="geometry"/>
                </mxCell>
                <mxCell id="86" value="Handling Text Inputs" style="text;html=1;strokeColor=none;fillColor=none;align=center;verticalAlign=middle;whiteSpace=wrap;rounded=0;shadow=0;fontSize=20;fontStyle=1" parent="80" vertex="1">
                    <mxGeometry x="50" width="340" height="20" as="geometry"/>
                </mxCell>
                <mxCell id="87" value="When the 'onChange' event fires, get the value from the input" style="rounded=0;whiteSpace=wrap;html=1;shadow=0;strokeColor=#000000;fontSize=14;align=center;" parent="80" vertex="1">
                    <mxGeometry x="40" y="126" width="400" height="40" as="geometry"/>
                </mxCell>
                <mxCell id="88" value="5" style="rounded=0;whiteSpace=wrap;html=1;shadow=0;strokeColor=#6c8ebf;fontSize=15;align=center;fillColor=#006666;" parent="80" vertex="1">
                    <mxGeometry y="226" width="40" height="40" as="geometry"/>
                </mxCell>
                <mxCell id="89" value="Pass your state to the input as the &lt;b&gt;value&lt;/b&gt; prop." style="rounded=0;whiteSpace=wrap;html=1;shadow=0;strokeColor=#000000;fontSize=14;align=center;" parent="80" vertex="1">
                    <mxGeometry x="40" y="226" width="400" height="40" as="geometry"/>
                </mxCell>
                <mxCell id="90" value="4" style="rounded=0;whiteSpace=wrap;html=1;shadow=0;strokeColor=#6c8ebf;fontSize=15;align=center;fillColor=#006666;" parent="80" vertex="1">
                    <mxGeometry y="176" width="40" height="40" as="geometry"/>
                </mxCell>
                <mxCell id="91" value="Take that value from the input and use it to update your state" style="rounded=0;whiteSpace=wrap;html=1;shadow=0;strokeColor=#000000;fontSize=14;align=center;" parent="80" vertex="1">
                    <mxGeometry x="40" y="176" width="400" height="40" as="geometry"/>
                </mxCell>
                <mxCell id="92" value="" style="group" vertex="1" connectable="0" parent="1">
                    <mxGeometry x="950" y="570" width="470" height="330" as="geometry"/>
                </mxCell>
                <mxCell id="93" value="Our App" style="rounded=0;whiteSpace=wrap;html=1;fontSize=15;fillColor=#006666;strokeColor=#6c8ebf;fontStyle=1" vertex="1" parent="92">
                    <mxGeometry width="113.93939393939394" height="330" as="geometry"/>
                </mxCell>
                <mxCell id="94" style="edgeStyle=orthogonalEdgeStyle;rounded=0;orthogonalLoop=1;jettySize=auto;html=1;exitX=0;exitY=0.75;exitDx=0;exitDy=0;entryX=1;entryY=0.75;entryDx=0;entryDy=0;fontSize=11;" edge="1" parent="92" source="95" target="93">
                    <mxGeometry relative="1" as="geometry"/>
                </mxCell>
                <mxCell id="95" value="Unsplash API" style="rounded=0;whiteSpace=wrap;html=1;fontSize=15;fillColor=#003366;strokeColor=#82b366;fontStyle=1" vertex="1" parent="92">
                    <mxGeometry x="356.06060606060606" width="113.93939393939394" height="330" as="geometry"/>
                </mxCell>
                <mxCell id="96" style="edgeStyle=orthogonalEdgeStyle;rounded=0;orthogonalLoop=1;jettySize=auto;html=1;exitX=1;exitY=0.25;exitDx=0;exitDy=0;entryX=0;entryY=0.25;entryDx=0;entryDy=0;fontSize=15;" edge="1" parent="92" source="93" target="95">
                    <mxGeometry relative="1" as="geometry"/>
                </mxCell>
                <mxCell id="97" value="&lt;span style=&quot;font-size: 9px;&quot;&gt;I'm looking for images related to &quot;cars&quot;&lt;/span&gt;" style="rounded=0;whiteSpace=wrap;html=1;fontSize=9;" vertex="1" parent="92">
                    <mxGeometry x="152.3939393939394" y="45" width="170.9090909090909" height="37.5" as="geometry"/>
                </mxCell>
                <mxCell id="98" value="&lt;span style=&quot;font-size: 7px;&quot;&gt;Network Request&lt;/span&gt;" style="rounded=0;whiteSpace=wrap;html=1;fontSize=7;fontStyle=1" vertex="1" parent="92">
                    <mxGeometry x="152.3939393939394" y="30" width="170.9090909090909" height="15" as="geometry"/>
                </mxCell>
                <mxCell id="99" value="&lt;font style=&quot;font-size: 9px;&quot;&gt;Here is an array of objects. Each object has info about an image&lt;/font&gt;" style="rounded=0;whiteSpace=wrap;html=1;fontSize=9;" vertex="1" parent="92">
                    <mxGeometry x="152.3939393939394" y="262.5" width="170.9090909090909" height="52.5" as="geometry"/>
                </mxCell>
                <mxCell id="100" value="&lt;span style=&quot;font-size: 7px&quot;&gt;Response&lt;/span&gt;" style="rounded=0;whiteSpace=wrap;html=1;fontSize=7;fontStyle=1" vertex="1" parent="92">
                    <mxGeometry x="152.3939393939394" y="247.5" width="170.9090909090909" height="15" as="geometry"/>
                </mxCell>
                <mxCell id="101" value="" style="group;fillColor=none;" vertex="1" connectable="0" parent="1">
                    <mxGeometry x="950" y="990" width="330" height="220" as="geometry"/>
                </mxCell>
                <mxCell id="102" value="Our App" style="rounded=0;whiteSpace=wrap;html=1;fontSize=15;fillColor=#006666;strokeColor=#6c8ebf;fontStyle=1" vertex="1" parent="101">
                    <mxGeometry width="80" height="220" as="geometry"/>
                </mxCell>
                <mxCell id="103" style="edgeStyle=orthogonalEdgeStyle;rounded=0;orthogonalLoop=1;jettySize=auto;html=1;exitX=0;exitY=0.75;exitDx=0;exitDy=0;entryX=1;entryY=0.75;entryDx=0;entryDy=0;fontSize=11;" edge="1" parent="101" source="104" target="102">
                    <mxGeometry relative="1" as="geometry"/>
                </mxCell>
                <mxCell id="104" value="Unsplash API" style="rounded=0;whiteSpace=wrap;html=1;fontSize=15;fillColor=#003366;strokeColor=#82b366;fontStyle=1" vertex="1" parent="101">
                    <mxGeometry x="250" width="80" height="220" as="geometry"/>
                </mxCell>
                <mxCell id="105" style="edgeStyle=orthogonalEdgeStyle;rounded=0;orthogonalLoop=1;jettySize=auto;html=1;exitX=1;exitY=0.25;exitDx=0;exitDy=0;entryX=0;entryY=0.25;entryDx=0;entryDy=0;fontSize=15;" edge="1" parent="101" source="102" target="104">
                    <mxGeometry relative="1" as="geometry"/>
                </mxCell>
                <mxCell id="106" value="&lt;span style=&quot;font-size: 12px;&quot;&gt;HTTP Response&lt;/span&gt;" style="rounded=0;whiteSpace=wrap;html=1;fontSize=12;fontStyle=1;fillColor=#e1d5e7;strokeColor=#9673a6;" vertex="1" parent="101">
                    <mxGeometry x="130.5" y="165" width="73" height="35" as="geometry"/>
                </mxCell>
                <mxCell id="107" value="&lt;span style=&quot;font-size: 12px&quot;&gt;HTTP Request&lt;/span&gt;" style="rounded=0;whiteSpace=wrap;html=1;fontSize=12;fontStyle=1;fillColor=#e1d5e7;strokeColor=#9673a6;" vertex="1" parent="101">
                    <mxGeometry x="130.5" y="20" width="73" height="35" as="geometry"/>
                </mxCell>
            </root>
        </mxGraphModel>
    </diagram>
</mxfile>